STARTFONT 2.1
COMMENT $XConsortium: lubI19.bdf,v 1.3 94/04/02 16:10:43 gildea Exp $
COMMENT  (c) Copyright Bigelow & Holmes 1986, 1985. Lucida is a registered
COMMENT  trademark of Bigelow & Holmes. See LEGAL NOTICE file for terms 
COMMENT  of the license. 
COMMENT  
COMMENT  Translation to ISO8859-2 by Cub Soft;  Petr.Kolar@vslib.cz
COMMENT  
FONT -B&H-LucidaBright-Medium-I-Normal--19-190-75-75-P-109-ISO8859-2
SIZE 19 72 72
FONTBOUNDINGBOX 31 22 -10 -4
STARTPROPERTIES 20
COMMENT Begin LogicalFontDescription
FONTNAME_REGISTRY ""
FOUNDRY "B&H"
FAMILY_NAME "LucidaBright"
WEIGHT_NAME "Medium"
SLANT "I"
SETWIDTH_NAME "Normal"
ADD_STYLE_NAME ""
PIXEL_SIZE 19
POINT_SIZE 190
RESOLUTION_X 100
RESOLUTION_Y 100
SPACING "P"
AVERAGE_WIDTH "109"
CHARSET_REGISTRY "ISO8859"
CHARSET_ENCODING "2"
COMMENT END LogicalFontDescription
COPYRIGHT "Copyright Bigelow & Holmes 1986, 1985., Copyright 1996 Cub Soft"
FONT_ASCENT 17
FONT_DESCENT 5
DEFAULT_CHAR 0
FACE_NAME "Lucida Bright Italic"
ENDPROPERTIES
CHARS 191
STARTCHAR space
ENCODING 32
SWIDTH 333 0
DWIDTH 5 0
BBX 1 1 0 0
BITMAP
00
ENDCHAR
STARTCHAR exclam
ENCODING 33
SWIDTH 265 0
DWIDTH 5 0
BBX 5 14 1 0
BITMAP
18
18
10
30
30
30
20
20
20
20
40
00
00
c0
ENDCHAR
STARTCHAR quotedbl
ENCODING 34
SWIDTH 377 0
DWIDTH 7 0
BBX 5 4 4 10
BITMAP
d8
d8
90
90
ENDCHAR
STARTCHAR numbersign
ENCODING 35
SWIDTH 608 0
DWIDTH 12 0
BBX 12 14 1 0
BITMAP
0130
0220
0240
0440
7ff0
0880
0900
1100
ffe0
2200
2600
4400
4400
c800
ENDCHAR
STARTCHAR dollar
ENCODING 36
SWIDTH 608 0
DWIDTH 12 0
BBX 9 17 3 -2
BITMAP
0200
1f80
3480
6480
6400
6400
3800
1800
0e00
1700
1300
1300
9200
d600
f800
2000
2000
ENDCHAR
STARTCHAR percent
ENCODING 37
SWIDTH 759 0
DWIDTH 14 0
BBX 13 14 2 0
BITMAP
1c08
2410
6620
4440
4480
6d00
3b00
02e0
0590
0910
1110
2110
4120
c1c0
ENDCHAR
STARTCHAR ampersand
ENCODING 38
SWIDTH 727 0
DWIDTH 14 0
BBX 13 14 2 0
BITMAP
0380
04c0
0c40
0c40
0cc0
0f00
1400
6678
c630
c320
c360
c1c0
61c0
3ef0
ENDCHAR
STARTCHAR apostrophe
ENCODING 39
SWIDTH 265 0
DWIDTH 5 0
BBX 3 5 3 9
BITMAP
60
60
60
40
c0
ENDCHAR
STARTCHAR parenleft
ENCODING 40
SWIDTH 310 0
DWIDTH 6 0
BBX 7 18 2 -4
BITMAP
02
0c
10
10
20
60
60
40
c0
c0
c0
c0
c0
c0
c0
40
40
20
ENDCHAR
STARTCHAR parenright
ENCODING 41
SWIDTH 310 0
DWIDTH 6 0
BBX 6 18 0 -4
BITMAP
10
08
08
04
04
04
04
04
0c
0c
0c
08
18
10
30
20
40
80
ENDCHAR
STARTCHAR asterisk
ENCODING 42
SWIDTH 458 0
DWIDTH 9 0
BBX 7 7 3 7
BITMAP
18
10
d6
2c
30
c8
48
ENDCHAR
STARTCHAR plus
ENCODING 43
SWIDTH 608 0
DWIDTH 12 0
BBX 11 12 1 0
BITMAP
0200
0200
0200
0200
0400
0400
ffe0
0400
0400
0c00
0800
0800
ENDCHAR
STARTCHAR comma
ENCODING 44
SWIDTH 265 0
DWIDTH 5 0
BBX 3 7 1 -4
BITMAP
60
60
60
60
40
40
80
ENDCHAR
STARTCHAR minus
ENCODING 45
SWIDTH 608 0
DWIDTH 12 0
BBX 11 1 1 5
BITMAP
ffe0
ENDCHAR
STARTCHAR period
ENCODING 46
SWIDTH 265 0
DWIDTH 5 0
BBX 3 2 1 0
BITMAP
e0
e0
ENDCHAR
STARTCHAR slash
ENCODING 47
SWIDTH 458 0
DWIDTH 9 0
BBX 12 18 0 -4
BITMAP
0010
0020
0040
0040
0080
0080
0100
0200
0200
0400
0400
0800
1000
1000
2000
2000
4000
8000
ENDCHAR
STARTCHAR zero
ENCODING 48
SWIDTH 608 0
DWIDTH 12 0
BBX 10 14 2 0
BITMAP
0f00
1980
30c0
60c0
60c0
40c0
c0c0
c0c0
c080
c180
c180
c300
6600
3c00
ENDCHAR
STARTCHAR one
ENCODING 49
SWIDTH 608 0
DWIDTH 12 0
BBX 7 14 2 0
BITMAP
1e
06
06
04
0c
0c
0c
0c
08
18
18
18
18
fe
ENDCHAR
STARTCHAR two
ENCODING 50
SWIDTH 608 0
DWIDTH 12 0
BBX 11 14 1 0
BITMAP
0f80
10e0
1060
0060
0060
00c0
0180
0300
0400
0800
3000
6000
4000
ff80
ENDCHAR
STARTCHAR three
ENCODING 51
SWIDTH 608 0
DWIDTH 12 0
BBX 10 14 2 0
BITMAP
1f00
1180
30c0
00c0
0180
0300
1e00
0300
0180
0180
0180
8300
8600
fc00
ENDCHAR
STARTCHAR four
ENCODING 52
SWIDTH 608 0
DWIDTH 12 0
BBX 10 14 1 0
BITMAP
00c0
0180
0380
0580
0980
1180
1180
2100
4100
ffc0
0300
0200
0600
0f80
ENDCHAR
STARTCHAR five
ENCODING 53
SWIDTH 608 0
DWIDTH 12 0
BBX 10 14 2 0
BITMAP
1fc0
2000
2000
2000
2000
3c00
0700
0300
0180
0180
0100
8300
8600
fc00
ENDCHAR
STARTCHAR six
ENCODING 54
SWIDTH 608 0
DWIDTH 12 0
BBX 10 14 2 0
BITMAP
07c0
1840
3040
3000
6000
7f00
e180
c180
c180
c180
c180
c100
6200
3c00
ENDCHAR
STARTCHAR seven
ENCODING 55
SWIDTH 608 0
DWIDTH 12 0
BBX 11 14 3 0
BITMAP
3fe0
0040
0080
0080
0100
0200
0400
0800
1800
3000
2000
6000
c000
c000
ENDCHAR
STARTCHAR eight
ENCODING 56
SWIDTH 608 0
DWIDTH 12 0
BBX 9 14 3 0
BITMAP
0f00
1180
3080
3080
3180
3b00
1c00
2700
4300
c100
c180
c300
e600
3c00
ENDCHAR
STARTCHAR nine
ENCODING 57
SWIDTH 608 0
DWIDTH 12 0
BBX 10 14 2 0
BITMAP
0f00
1980
30c0
60c0
60c0
60c0
60c0
71c0
3fc0
0180
0180
8300
8600
7800
ENDCHAR
STARTCHAR colon
ENCODING 58
SWIDTH 265 0
DWIDTH 5 0
BBX 4 10 2 0
BITMAP
30
70
00
00
00
00
00
00
e0
c0
ENDCHAR
STARTCHAR semicolon
ENCODING 59
SWIDTH 265 0
DWIDTH 5 0
BBX 5 14 1 -4
BITMAP
18
38
00
00
00
00
00
00
60
60
60
60
40
c0
ENDCHAR
STARTCHAR less
ENCODING 60
SWIDTH 608 0
DWIDTH 12 0
BBX 12 12 1 0
BITMAP
0010
0060
0180
0600
1800
e000
6000
1800
0c00
0300
01c0
0040
ENDCHAR
STARTCHAR equal
ENCODING 61
SWIDTH 608 0
DWIDTH 12 0
BBX 12 5 1 3
BITMAP
7ff0
0000
0000
0000
ffe0
ENDCHAR
STARTCHAR greater
ENCODING 62
SWIDTH 608 0
DWIDTH 12 0
BBX 12 12 0 0
BITMAP
2000
3800
0c00
0300
0180
0060
0070
0180
0600
1800
6000
8000
ENDCHAR
STARTCHAR question
ENCODING 63
SWIDTH 471 0
DWIDTH 9 0
BBX 7 14 3 0
BITMAP
7c
c6
82
02
06
0c
18
30
60
60
00
00
00
c0
ENDCHAR
STARTCHAR at
ENCODING 64
SWIDTH 861 0
DWIDTH 16 0
BBX 14 14 2 0
BITMAP
03e0
0c18
1004
23e4
4464
8444
8844
88c4
8944
8948
8e70
4000
3080
1f00
ENDCHAR
STARTCHAR A
ENCODING 65
SWIDTH 747 0
DWIDTH 14 0
BBX 14 14 0 0
BITMAP
0040
00c0
00e0
0160
0160
0260
0460
0430
0830
1ff0
2030
2030
6038
f07c
ENDCHAR
STARTCHAR B
ENCODING 66
SWIDTH 606 0
DWIDTH 12 0
BBX 12 14 0 0
BITMAP
1fe0
0c30
0c30
0c30
0c20
08e0
1f80
18c0
1860
1860
3060
3060
30c0
ff80
ENDCHAR
STARTCHAR C
ENCODING 67
SWIDTH 714 0
DWIDTH 14 0
BBX 13 14 2 0
BITMAP
03f8
0c18
1818
3018
6000
6000
c000
c000
c000
c000
c000
6000
7060
1f80
ENDCHAR
STARTCHAR D
ENCODING 68
SWIDTH 770 0
DWIDTH 15 0
BBX 15 14 0 0
BITMAP
1ff0
0c1c
0c0c
0c06
0c06
1806
1806
1806
180c
180c
3018
3038
3060
ff80
ENDCHAR
STARTCHAR E
ENCODING 69
SWIDTH 569 0
DWIDTH 11 0
BBX 12 14 1 0
BITMAP
1ff0
0c10
0c30
0c00
0800
1840
1fc0
1880
1800
1000
3000
3040
3040
ffc0
ENDCHAR
STARTCHAR F
ENCODING 70
SWIDTH 551 0
DWIDTH 10 0
BBX 12 14 1 0
BITMAP
1ff0
0c10
0c30
0c00
0800
1840
1f80
1880
1800
1000
3000
3000
3000
fc00
ENDCHAR
STARTCHAR G
ENCODING 71
SWIDTH 756 0
DWIDTH 14 0
BBX 13 14 2 0
BITMAP
03f8
0c18
1810
3000
6000
6000
c000
c000
c1f8
c060
c060
6060
70c0
1f80
ENDCHAR
STARTCHAR H
ENCODING 72
SWIDTH 776 0
DWIDTH 15 0
BBX 17 14 0 0
BITMAP
1f1f80
0e0600
0c0600
0c0600
0c0c00
180c00
1ffc00
180c00
180c00
181800
301800
301800
303800
fc7c00
ENDCHAR
STARTCHAR I
ENCODING 73
SWIDTH 325 0
DWIDTH 6 0
BBX 8 14 1 0
BITMAP
1f
0c
0c
0c
08
18
18
18
18
10
30
30
30
f8
ENDCHAR
STARTCHAR J
ENCODING 74
SWIDTH 422 0
DWIDTH 8 0
BBX 11 18 0 -4
BITMAP
07e0
0180
0180
0180
0300
0300
0300
0300
0300
0300
0600
0600
0600
0600
0400
cc00
8800
f000
ENDCHAR
STARTCHAR K
ENCODING 75
SWIDTH 698 0
DWIDTH 13 0
BBX 14 14 1 0
BITMAP
1f3c
0c18
0c20
0c40
0980
1b00
1e00
1f00
1b00
3180
31c0
30c0
3060
f9f0
ENDCHAR
STARTCHAR L
ENCODING 76
SWIDTH 572 0
DWIDTH 11 0
BBX 11 14 0 0
BITMAP
1f00
0e00
0c00
0c00
0c00
0c00
1800
1800
1800
1800
3000
3020
3060
ffe0
ENDCHAR
STARTCHAR M
ENCODING 77
SWIDTH 865 0
DWIDTH 16 0
BBX 18 14 1 0
BITMAP
1c03c0
0e0700
0e0700
0e0b00
0e0a00
121600
133600
132600
134600
114400
218c00
210c00
200c00
f03e00
ENDCHAR
STARTCHAR N
ENCODING 78
SWIDTH 762 0
DWIDTH 14 0
BBX 16 14 0 0
BITMAP
1c0f
0c02
0e04
0e04
1304
1384
1184
10c8
10c8
1068
2068
2038
2030
f010
ENDCHAR
STARTCHAR O
ENCODING 79
SWIDTH 783 0
DWIDTH 15 0
BBX 13 14 2 0
BITMAP
03e0
0c30
1818
3018
6018
6018
c018
c018
c018
c030
c030
6060
71c0
1f00
ENDCHAR
STARTCHAR P
ENCODING 80
SWIDTH 579 0
DWIDTH 11 0
BBX 12 14 1 0
BITMAP
1fe0
0c30
0c30
0c30
0830
1860
18c0
1f80
1800
3000
3000
3000
3000
fc00
ENDCHAR
STARTCHAR Q
ENCODING 81
SWIDTH 788 0
DWIDTH 15 0
BBX 15 18 2 -4
BITMAP
03e0
0c30
1818
3018
6018
6018
c018
c018
c018
c030
c030
6060
71e0
1fc0
0100
0080
00c0
003e
ENDCHAR
STARTCHAR R
ENCODING 82
SWIDTH 686 0
DWIDTH 13 0
BBX 13 14 0 0
BITMAP
1ff0
0c30
0c38
0c30
0c30
0c20
18c0
1f80
1980
18c0
30c0
3060
3060
fc38
ENDCHAR
STARTCHAR S
ENCODING 83
SWIDTH 549 0
DWIDTH 10 0
BBX 11 14 1 0
BITMAP
0fc0
1860
1040
3040
3000
1800
0e00
0700
0380
0180
c180
8180
c300
7e00
ENDCHAR
STARTCHAR T
ENCODING 84
SWIDTH 663 0
DWIDTH 13 0
BBX 12 14 3 0
BITMAP
fff0
8610
8610
0600
0c00
0c00
0c00
0c00
0c00
1800
1800
1800
1800
7e00
ENDCHAR
STARTCHAR U
ENCODING 85
SWIDTH 727 0
DWIDTH 14 0
BBX 13 14 3 0
BITMAP
fc78
7020
6020
6020
6020
6040
6040
c040
c040
c040
c080
c080
6100
3e00
ENDCHAR
STARTCHAR V
ENCODING 86
SWIDTH 656 0
DWIDTH 12 0
BBX 14 14 2 0
BITMAP
f83c
6008
6010
3020
3020
3040
30c0
3080
1900
1b00
1a00
1c00
1c00
0800
ENDCHAR
STARTCHAR W
ENCODING 87
SWIDTH 878 0
DWIDTH 17 0
BBX 18 14 2 0
BITMAP
f843c0
60c180
60c100
61c200
61c200
22c400
22c400
244800
344800
387000
387000
306000
306000
204000
ENDCHAR
STARTCHAR X
ENCODING 88
SWIDTH 624 0
DWIDTH 12 0
BBX 15 14 0 0
BITMAP
1f1e
0e0c
0618
0630
0360
03c0
0180
0380
02c0
04c0
0860
1060
2070
f0f8
ENDCHAR
STARTCHAR Y
ENCODING 89
SWIDTH 663 0
DWIDTH 13 0
BBX 13 14 2 0
BITMAP
f878
7030
3060
30c0
1880
1900
1e00
0c00
0c00
0c00
1800
1800
1800
7e00
ENDCHAR
STARTCHAR Z
ENCODING 90
SWIDTH 633 0
DWIDTH 12 0
BBX 12 14 1 0
BITMAP
1ff0
1060
30e0
00c0
0180
0300
0600
0600
0c00
1800
3000
7040
6040
ffc0
ENDCHAR
STARTCHAR bracketleft
ENCODING 91
SWIDTH 310 0
DWIDTH 6 0
BBX 7 18 1 -4
BITMAP
1e
18
18
10
10
30
30
30
20
20
60
60
60
40
40
c0
c0
f0
ENDCHAR
STARTCHAR backslash
ENCODING 92
SWIDTH 458 0
DWIDTH 9 0
BBX 5 18 3 -4
BITMAP
80
80
40
40
40
40
40
20
20
20
20
10
10
10
10
10
08
08
ENDCHAR
STARTCHAR bracketright
ENCODING 93
SWIDTH 310 0
DWIDTH 6 0
BBX 7 18 0 -4
BITMAP
1e
06
06
04
04
0c
0c
0c
08
08
18
18
18
10
10
30
30
f0
ENDCHAR
STARTCHAR asciicircum
ENCODING 94
SWIDTH 608 0
DWIDTH 12 0
BBX 11 12 1 2
BITMAP
0100
0100
0300
0780
0480
0880
0880
1040
2040
2040
4040
c020
ENDCHAR
STARTCHAR underscore
ENCODING 95
SWIDTH 500 0
DWIDTH 9 0
BBX 8 1 1 -2
BITMAP
ff
ENDCHAR
STARTCHAR grave
ENCODING 96
SWIDTH 560 0
DWIDTH 11 0
BBX 3 3 6 11
BITMAP
c0
40
20
ENDCHAR
STARTCHAR a
ENCODING 97
SWIDTH 608 0
DWIDTH 12 0
BBX 10 10 2 0
BITMAP
0fc0
10c0
20c0
6080
6180
c180
c380
c580
c900
73c0
ENDCHAR
STARTCHAR b
ENCODING 98
SWIDTH 596 0
DWIDTH 11 0
BBX 10 14 2 0
BITMAP
7800
1000
3000
3000
3380
34c0
28c0
70c0
70c0
6080
4180
4100
c200
fc00
ENDCHAR
STARTCHAR c
ENCODING 99
SWIDTH 487 0
DWIDTH 9 0
BBX 9 10 2 0
BITMAP
0f80
1100
2100
4000
c000
c000
c000
c000
c200
7c00
ENDCHAR
STARTCHAR d
ENCODING 100
SWIDTH 608 0
DWIDTH 12 0
BBX 11 14 2 0
BITMAP
01e0
0060
0040
00c0
0fc0
10c0
20c0
6080
6180
c180
c380
c580
c900
73c0
ENDCHAR
STARTCHAR e
ENCODING 101
SWIDTH 518 0
DWIDTH 10 0
BBX 8 10 2 0
BITMAP
0f
33
63
43
c6
f8
c0
c1
e3
7c
ENDCHAR
STARTCHAR f
ENCODING 102
SWIDTH 380 0
DWIDTH 7 0
BBX 9 19 2 -4
BITMAP
0780
0880
0880
1800
1800
7e00
3000
3000
3000
3000
2000
6000
6000
6000
6000
4000
c000
c000
c000
ENDCHAR
STARTCHAR g
ENCODING 103
SWIDTH 602 0
DWIDTH 11 0
BBX 11 14 1 -4
BITMAP
07e0
0860
1060
3040
20c0
60c0
61c0
62c0
6580
3980
0180
8100
c200
7c00
ENDCHAR
STARTCHAR h
ENCODING 104
SWIDTH 631 0
DWIDTH 12 0
BBX 10 14 2 0
BITMAP
7800
1000
3000
3000
3380
24c0
28c0
7080
6180
6180
4180
4180
c180
c3c0
ENDCHAR
STARTCHAR i
ENCODING 105
SWIDTH 289 0
DWIDTH 5 0
BBX 5 14 2 0
BITMAP
18
00
00
00
f0
30
30
20
60
60
60
40
c0
f0
ENDCHAR
STARTCHAR j
ENCODING 106
SWIDTH 343 0
DWIDTH 7 0
BBX 9 18 0 -4
BITMAP
0180
0000
0000
0000
0700
0300
0300
0300
0200
0200
0600
0600
0600
0400
0c00
8c00
8800
f000
ENDCHAR
STARTCHAR k
ENCODING 107
SWIDTH 560 0
DWIDTH 11 0
BBX 10 14 1 0
BITMAP
7800
1800
1000
3000
30c0
3180
3300
6400
7800
6c00
6c00
4600
c300
c3c0
ENDCHAR
STARTCHAR l
ENCODING 108
SWIDTH 289 0
DWIDTH 5 0
BBX 5 14 2 0
BITMAP
78
18
10
30
30
30
30
60
60
60
60
40
c0
f0
ENDCHAR
STARTCHAR m
ENCODING 109
SWIDTH 944 0
DWIDTH 18 0
BBX 16 10 2 0
BITMAP
f38e
34d3
68a3
71e2
71c6
6186
6186
c186
c306
c30f
ENDCHAR
STARTCHAR n
ENCODING 110
SWIDTH 631 0
DWIDTH 12 0
BBX 10 10 2 0
BITMAP
f380
24c0
68c0
7080
6180
6180
4180
c180
c180
c3c0
ENDCHAR
STARTCHAR o
ENCODING 111
SWIDTH 560 0
DWIDTH 11 0
BBX 9 10 2 0
BITMAP
0f00
3180
6180
6180
c180
c180
c180
c300
e600
7800
ENDCHAR
STARTCHAR p
ENCODING 112
SWIDTH 608 0
DWIDTH 12 0
BBX 11 14 1 -4
BITMAP
79c0
3260
3460
3860
3060
30c0
60c0
6080
6100
7e00
4000
c000
c000
c000
ENDCHAR
STARTCHAR q
ENCODING 113
SWIDTH 599 0
DWIDTH 11 0
BBX 10 14 2 -4
BITMAP
0fc0
10c0
20c0
6080
6180
c180
c380
c580
c900
7300
0300
0300
0300
0600
ENDCHAR
STARTCHAR r
ENCODING 114
SWIDTH 470 0
DWIDTH 9 0
BBX 9 10 2 0
BITMAP
f180
3700
3c00
7800
7000
6000
6000
4000
c000
c000
ENDCHAR
STARTCHAR s
ENCODING 115
SWIDTH 440 0
DWIDTH 8 0
BBX 9 10 1 0
BITMAP
0f00
3180
3100
3800
1c00
0e00
8600
8300
c600
7c00
ENDCHAR
STARTCHAR t
ENCODING 116
SWIDTH 355 0
DWIDTH 7 0
BBX 6 13 2 0
BITMAP
30
30
30
fc
60
60
60
60
40
c0
c0
c0
70
ENDCHAR
STARTCHAR u
ENCODING 117
SWIDTH 630 0
DWIDTH 12 0
BBX 10 10 2 0
BITMAP
f3c0
60c0
60c0
6080
6180
6180
4380
c580
c900
73c0
ENDCHAR
STARTCHAR v
ENCODING 118
SWIDTH 558 0
DWIDTH 11 0
BBX 11 10 1 0
BITMAP
f0e0
3060
3060
18c0
1880
1900
1a00
1e00
1c00
1800
ENDCHAR
STARTCHAR w
ENCODING 119
SWIDTH 805 0
DWIDTH 15 0
BBX 15 10 1 0
BITMAP
e086
3186
3186
33c4
12c8
16d8
14d0
18e0
18c0
10c0
ENDCHAR
STARTCHAR x
ENCODING 120
SWIDTH 510 0
DWIDTH 10 0
BBX 10 10 1 0
BITMAP
70c0
38c0
1980
0f00
0c00
1e00
3600
6300
c300
c1c0
ENDCHAR
STARTCHAR y
ENCODING 121
SWIDTH 558 0
DWIDTH 11 0
BBX 12 14 0 -4
BITMAP
7870
1830
1820
0820
0c40
0c80
0d00
0d00
0e00
0400
0800
1000
3000
e000
ENDCHAR
STARTCHAR z
ENCODING 122
SWIDTH 536 0
DWIDTH 10 0
BBX 10 10 1 0
BITMAP
3fc0
2180
2300
0600
0c00
1c00
1800
3080
6180
ff80
ENDCHAR
STARTCHAR braceleft
ENCODING 123
SWIDTH 337 0
DWIDTH 6 0
BBX 7 18 2 -4
BITMAP
0e
18
10
10
10
10
10
30
20
c0
60
60
60
40
c0
c0
c0
60
ENDCHAR
STARTCHAR bar
ENCODING 124
SWIDTH 241 0
DWIDTH 5 0
BBX 5 18 1 -4
BITMAP
08
18
10
10
10
10
30
20
20
20
20
60
40
40
40
40
c0
80
ENDCHAR
STARTCHAR braceright
ENCODING 125
SWIDTH 337 0
DWIDTH 6 0
BBX 7 18 2 -4
BITMAP
18
04
04
0c
0c
08
08
08
0e
10
10
30
30
30
30
30
60
c0
ENDCHAR
STARTCHAR asciitilde
ENCODING 126
SWIDTH 608 0
DWIDTH 12 0
BBX 12 5 1 3
BITMAP
3810
4c10
8610
8320
81c0
ENDCHAR
STARTCHAR nobreakspace
ENCODING 160
SWIDTH 333 0
DWIDTH 5 0
BBX 1 1 0 0
BITMAP
00
ENDCHAR
STARTCHAR Aogonek
ENCODING 161
SWIDTH 747 0
DWIDTH 14 0
BBX 14 17 0 -3
BITMAP
0040
00c0
00e0
0160
0160
0260
0460
0430
0830
1ff0
2030
2030
6038
f07c
0300
0400
0700
ENDCHAR
STARTCHAR breve
ENCODING 162
SWIDTH 560 0
DWIDTH 11 0
BBX 6 3 6 11
BITMAP
84
d8
70
ENDCHAR
STARTCHAR Lstroke
ENCODING 163
SWIDTH 572 0
DWIDTH 11 0
BBX 10 14 1 0
BITMAP
1f00
0c00
0c00
0c00
0800
1a00
1c00
3800
5800
3000
3000
3040
30c0
ffc0
ENDCHAR
STARTCHAR currency
ENCODING 164
SWIDTH 608 0
DWIDTH 12 0
BBX 13 12 1 1
BITMAP
2008
1710
18a0
1040
1040
2040
2040
2040
1080
31c0
6f40
8020
ENDCHAR
STARTCHAR Lcaron
ENCODING 165
SWIDTH 631 0
DWIDTH 12 0
BBX 12 15 0 0
BITMAP
0030
1f30
0e30
0c20
0c60
0c00
0c00
1800
1800
1800
1800
3000
3020
3060
ffe0
ENDCHAR
STARTCHAR Sacute
ENCODING 166
SWIDTH 549 0
DWIDTH 10 0
BBX 12 18 1 0
BITMAP
0070
00c0
0180
0000
0fc0
1860
1040
3040
3000
1800
0e00
0700
0380
0180
c180
8180
c300
7e00
ENDCHAR
STARTCHAR section
ENCODING 167
SWIDTH 608 0
DWIDTH 12 0
BBX 10 18 2 -4
BITMAP
07c0
1840
3040
3000
3000
1c00
3f00
2380
6180
6080
3980
1f00
0700
0300
0100
8300
c700
7c00
ENDCHAR
STARTCHAR diaeresis
ENCODING 168
SWIDTH 560 0
DWIDTH 11 0
BBX 6 1 5 13
BITMAP
cc
ENDCHAR
STARTCHAR Scaron
ENCODING 169
SWIDTH 549 0
DWIDTH 10 0
BBX 11 18 1 0
BITMAP
0420
02c0
0380
0000
0fc0
1860
1040
3040
3000
1800
0e00
0700
0380
0180
c180
8180
c300
7e00
ENDCHAR
STARTCHAR Scedilla
ENCODING 170
SWIDTH 549 0
DWIDTH 10 0
BBX 11 18 1 -4
BITMAP
0fc0
1860
1040
3040
3000
1800
0e00
0700
0380
0180
c180
8180
c300
7e00
0600
0600
0200
0e00
ENDCHAR
STARTCHAR Tcaron
ENCODING 171
SWIDTH 663 0
DWIDTH 13 0
BBX 12 18 3 0
BITMAP
0840
0580
0700
0000
fff0
8610
8610
0600
0c00
0c00
0c00
0c00
0c00
1800
1800
1800
1800
7e00
ENDCHAR
STARTCHAR Zacute
ENCODING 172
SWIDTH 633 0
DWIDTH 12 0
BBX 12 18 1 0
BITMAP
0070
00c0
0180
0000
1ff0
1060
30e0
00c0
0180
0300
0600
0600
0c00
1800
3000
7040
6040
ffc0
ENDCHAR
STARTCHAR hyphen
ENCODING 173
SWIDTH 313 0
DWIDTH 6 0
BBX 5 1 2 6
BITMAP
f8
ENDCHAR
STARTCHAR Zcaron
ENCODING 174
SWIDTH 633 0
DWIDTH 12 0
BBX 12 18 1 0
BITMAP
0420
02c0
0380
0000
1ff0
1060
30e0
00c0
0180
0300
0600
0600
0c00
1800
3000
7040
6040
ffc0
ENDCHAR
STARTCHAR Zabovedot
ENCODING 175
SWIDTH 633 0
DWIDTH 12 0
BBX 12 16 1 0
BITMAP
0180
0000
1ff0
1060
30e0
00c0
0180
0300
0600
0600
0c00
1800
3000
7040
6040
ffc0
ENDCHAR
STARTCHAR degree
ENCODING 176
SWIDTH 277 0
DWIDTH 5 0
BBX 3 4 3 10
BITMAP
60
a0
a0
60
ENDCHAR
STARTCHAR aogonek
ENCODING 177
SWIDTH 608 0
DWIDTH 12 0
BBX 10 13 2 -3
BITMAP
0fc0
10c0
20c0
6080
6180
c180
c380
c580
c900
73c0
0c00
1000
1c00
ENDCHAR
STARTCHAR ogonek
ENCODING 178
SWIDTH 560 0
DWIDTH 11 0
BBX 3 3 3 -4
BITMAP
60
80
e0
ENDCHAR
STARTCHAR lstroke
ENCODING 179
SWIDTH 289 0
DWIDTH 5 0
BBX 6 14 1 0
BITMAP
38
18
18
18
10
30
3c
f0
30
20
60
60
60
70
ENDCHAR
STARTCHAR acute
ENCODING 180
SWIDTH 560 0
DWIDTH 11 0
BBX 5 3 6 11
BITMAP
38
60
c0
ENDCHAR
STARTCHAR lcaron
ENCODING 181
SWIDTH 473 0
DWIDTH 9 0
BBX 9 15 2 0
BITMAP
0180
7980
1980
1100
3300
3000
3000
3000
6000
6000
6000
6000
4000
c000
f000
ENDCHAR
STARTCHAR sacute
ENCODING 182
SWIDTH 440 0
DWIDTH 8 0
BBX 10 14 1 0
BITMAP
01c0
0300
0600
0000
0f00
3180
3100
3800
1c00
0e00
8600
8300
c600
7c00
ENDCHAR
STARTCHAR caron
ENCODING 183
SWIDTH 560 0
DWIDTH 11 0
BBX 6 3 6 11
BITMAP
84
58
70
ENDCHAR
STARTCHAR cedilla
ENCODING 184
SWIDTH 560 0
DWIDTH 11 0
BBX 3 4 3 -4
BITMAP
60
60
20
e0
ENDCHAR
STARTCHAR scaron
ENCODING 185
SWIDTH 440 0
DWIDTH 8 0
BBX 9 14 1 0
BITMAP
1080
0b00
0e00
0000
0f00
3180
3100
3800
1c00
0e00
8600
8300
c600
7c00
ENDCHAR
STARTCHAR scedilla
ENCODING 186
SWIDTH 440 0
DWIDTH 8 0
BBX 9 14 1 -4
BITMAP
0f00
3180
3100
3800
1c00
0e00
8600
8300
c600
7c00
0c00
0c00
0400
1c00
ENDCHAR
STARTCHAR tcaron
ENCODING 187
SWIDTH 473 0
DWIDTH 9 0
BBX 8 16 2 0
BITMAP
03
03
03
32
36
30
fc
60
60
60
60
40
c0
c0
c0
70
ENDCHAR
STARTCHAR zacute
ENCODING 188
SWIDTH 536 0
DWIDTH 10 0
BBX 11 14 1 0
BITMAP
00e0
0180
0300
0000
3fc0
2180
2300
0600
0c00
1c00
1800
3080
6180
ff80
ENDCHAR
STARTCHAR doubleacute
ENCODING 189
SWIDTH 560 0
DWIDTH 11 0
BBX 6 3 6 11
BITMAP
3c
50
a0
ENDCHAR
STARTCHAR zcaron
ENCODING 190
SWIDTH 536 0
DWIDTH 10 0
BBX 10 14 1 0
BITMAP
0840
0580
0700
0000
3fc0
2180
2300
0600
0c00
1c00
1800
3080
6180
ff80
ENDCHAR
STARTCHAR zabovedot
ENCODING 191
SWIDTH 536 0
DWIDTH 10 0
BBX 10 12 1 0
BITMAP
0300
0000
3fc0
2180
2300
0600
0c00
1c00
1800
3080
6180
ff80
ENDCHAR
STARTCHAR Racute
ENCODING 192
SWIDTH 686 0
DWIDTH 13 0
BBX 13 18 0 0
BITMAP
0038
0060
00c0
0000
1ff0
0c30
0c38
0c30
0c30
0c20
18c0
1f80
1980
18c0
30c0
3060
3060
fc38
ENDCHAR
STARTCHAR Aacute
ENCODING 193
SWIDTH 747 0
DWIDTH 14 0
BBX 14 18 0 0
BITMAP
001c
0030
0060
0000
0040
00c0
00e0
0160
0160
0260
0460
0430
0830
1ff0
2030
2030
6038
f07c
ENDCHAR
STARTCHAR Acircumflex
ENCODING 194
SWIDTH 747 0
DWIDTH 14 0
BBX 14 18 0 0
BITMAP
0070
00d0
0108
0000
0040
00c0
00e0
0160
0160
0260
0460
0430
0830
1ff0
2030
2030
6038
f07c
ENDCHAR
STARTCHAR Abreve
ENCODING 195
SWIDTH 747 0
DWIDTH 14 0
BBX 14 18 0 0
BITMAP
0108
01b0
00e0
0000
0040
00c0
00e0
0160
0160
0260
0460
0430
0830
1ff0
2030
2030
6038
f07c
ENDCHAR
STARTCHAR Adiaeresis
ENCODING 196
SWIDTH 747 0
DWIDTH 14 0
BBX 14 16 0 0
BITMAP
0198
0000
0040
00c0
00e0
0160
0160
0260
0460
0430
0830
1ff0
2030
2030
6038
f07c
ENDCHAR
STARTCHAR Lacute
ENCODING 197
SWIDTH 572 0
DWIDTH 11 0
BBX 11 18 0 0
BITMAP
01c0
0300
0600
0000
1f00
0e00
0c00
0c00
0c00
0c00
1800
1800
1800
1800
3000
3020
3060
ffe0
ENDCHAR
STARTCHAR Cacute
ENCODING 198
SWIDTH 714 0
DWIDTH 14 0
BBX 13 18 2 0
BITMAP
0038
0060
00c0
0000
03f8
0c18
1818
3018
6000
6000
c000
c000
c000
c000
c000
6000
7060
1f80
ENDCHAR
STARTCHAR Ccedilla
ENCODING 199
SWIDTH 714 0
DWIDTH 14 0
BBX 13 18 2 -4
BITMAP
03f8
0c18
1818
3018
6000
6000
c000
c000
c000
c000
c000
6000
7060
1f80
0800
0c00
0400
1c00
ENDCHAR
STARTCHAR Ccaron
ENCODING 200
SWIDTH 714 0
DWIDTH 14 0
BBX 13 18 2 0
BITMAP
0210
0160
01c0
0000
03f8
0c18
1818
3018
6000
6000
c000
c000
c000
c000
c000
6000
7060
1f80
ENDCHAR
STARTCHAR Eacute
ENCODING 201
SWIDTH 569 0
DWIDTH 11 0
BBX 12 18 1 0
BITMAP
00e0
0180
0300
0000
1ff0
0c10
0c30
0c00
0800
1840
1fc0
1880
1800
1000
3000
3040
3040
ffc0
ENDCHAR
STARTCHAR Eogonek
ENCODING 202
SWIDTH 569 0
DWIDTH 11 0
BBX 12 17 1 -3
BITMAP
1ff0
0c10
0c30
0c00
0800
1840
1fc0
1880
1800
1000
3000
3040
3040
ffc0
0600
0800
0e00
ENDCHAR
STARTCHAR Ediaeresis
ENCODING 203
SWIDTH 569 0
DWIDTH 11 0
BBX 12 16 1 0
BITMAP
0660
0000
1ff0
0c10
0c30
0c00
0800
1840
1fc0
1880
1800
1000
3000
3040
3040
ffc0
ENDCHAR
STARTCHAR Ecaron
ENCODING 204
SWIDTH 569 0
DWIDTH 11 0
BBX 12 18 1 0
BITMAP
0420
02c0
0380
0000
1ff0
0c10
0c30
0c00
0800
1840
1fc0
1880
1800
1000
3000
3040
3040
ffc0
ENDCHAR
STARTCHAR Iacute
ENCODING 205
SWIDTH 325 0
DWIDTH 6 0
BBX 9 18 1 0
BITMAP
0380
0600
0c00
0000
1f00
0c00
0c00
0c00
0800
1800
1800
1800
1800
1000
3000
3000
3000
f800
ENDCHAR
STARTCHAR Icircumflex
ENCODING 206
SWIDTH 325 0
DWIDTH 6 0
BBX 9 18 1 0
BITMAP
0700
0d00
1080
0000
1f00
0c00
0c00
0c00
0800
1800
1800
1800
1800
1000
3000
3000
3000
f800
ENDCHAR
STARTCHAR Dcaron
ENCODING 207
SWIDTH 770 0
DWIDTH 15 0
BBX 15 18 0 0
BITMAP
0210
0160
01c0
0000
1ff0
0c1c
0c0c
0c06
0c06
1806
1806
1806
180c
180c
3018
3038
3060
ff80
ENDCHAR
STARTCHAR Dstroke
ENCODING 208
SWIDTH 770 0
DWIDTH 15 0
BBX 15 14 0 0
BITMAP
1ff0
0c1c
0c0c
0c06
0c06
1806
7f06
1806
180c
180c
3018
3038
3060
ff80
ENDCHAR
STARTCHAR Nacute
ENCODING 209
SWIDTH 762 0
DWIDTH 14 0
BBX 16 18 0 0
BITMAP
001c
0030
0060
0000
1c0f
0c02
0e04
0e04
1304
1384
1184
10c8
10c8
1068
2068
2038
2030
f010
ENDCHAR
STARTCHAR Ncaron
ENCODING 210
SWIDTH 762 0
DWIDTH 14 0
BBX 16 18 0 0
BITMAP
0108
00b0
00e0
0000
1c0f
0c02
0e04
0e04
1304
1384
1184
10c8
10c8
1068
2068
2038
2030
f010
ENDCHAR
STARTCHAR Oacute
ENCODING 211
SWIDTH 783 0
DWIDTH 15 0
BBX 13 18 2 0
BITMAP
0070
00c0
0180
0000
03e0
0c30
1818
3018
6018
6018
c018
c018
c018
c030
c030
6060
71c0
1f00
ENDCHAR
STARTCHAR Ocircumflex
ENCODING 212
SWIDTH 783 0
DWIDTH 15 0
BBX 13 18 2 0
BITMAP
01c0
0340
0420
0000
03e0
0c30
1818
3018
6018
6018
c018
c018
c018
c030
c030
6060
71c0
1f00
ENDCHAR
STARTCHAR Odoubleacute
ENCODING 213
SWIDTH 783 0
DWIDTH 15 0
BBX 13 18 2 0
BITMAP
0078
00a0
0140
0000
03e0
0c30
1818
3018
6018
6018
c018
c018
c018
c030
c030
6060
71c0
1f00
ENDCHAR
STARTCHAR Odiaeresis
ENCODING 214
SWIDTH 783 0
DWIDTH 15 0
BBX 13 16 2 0
BITMAP
0330
0000
03e0
0c30
1818
3018
6018
6018
c018
c018
c018
c030
c030
6060
71c0
1f00
ENDCHAR
STARTCHAR multiply
ENCODING 215
SWIDTH 608 0
DWIDTH 12 0
BBX 13 12 0 0
BITMAP
2008
3010
1020
0840
0480
0300
0700
0d00
1080
20c0
4040
8020
ENDCHAR
STARTCHAR Rcaron
ENCODING 216
SWIDTH 686 0
DWIDTH 13 0
BBX 13 18 0 0
BITMAP
0210
0160
01c0
0000
1ff0
0c30
0c38
0c30
0c30
0c20
18c0
1f80
1980
18c0
30c0
3060
3060
fc38
ENDCHAR
STARTCHAR Uring
ENCODING 217
SWIDTH 727 0
DWIDTH 14 0
BBX 13 18 3 0
BITMAP
0700
0500
0700
0000
fc78
7020
6020
6020
6020
6040
6040
c040
c040
c040
c080
c080
6100
3e00
ENDCHAR
STARTCHAR Uacute
ENCODING 218
SWIDTH 727 0
DWIDTH 14 0
BBX 13 18 3 0
BITMAP
01c0
0300
0600
0000
fc78
7020
6020
6020
6020
6040
6040
c040
c040
c040
c080
c080
6100
3e00
ENDCHAR
STARTCHAR Udoubleacute
ENCODING 219
SWIDTH 727 0
DWIDTH 14 0
BBX 13 18 3 0
BITMAP
01e0
0280
0500
0000
fc78
7020
6020
6020
6020
6040
6040
c040
c040
c040
c080
c080
6100
3e00
ENDCHAR
STARTCHAR Udiaeresis
ENCODING 220
SWIDTH 727 0
DWIDTH 14 0
BBX 13 16 3 0
BITMAP
0cc0
0000
fc78
7020
6020
6020
6020
6040
6040
c040
c040
c040
c080
c080
6100
3e00
ENDCHAR
STARTCHAR Yacute
ENCODING 221
SWIDTH 663 0
DWIDTH 13 0
BBX 13 18 2 0
BITMAP
01c0
0300
0600
0000
f878
7030
3060
30c0
1880
1900
1e00
0c00
0c00
0c00
1800
1800
1800
7e00
ENDCHAR
STARTCHAR Tcedilla
ENCODING 222
SWIDTH 663 0
DWIDTH 13 0
BBX 12 18 3 -4
BITMAP
fff0
8610
8610
0600
0c00
0c00
0c00
0c00
0c00
1800
1800
1800
1800
7e00
0600
0600
0200
0e00
ENDCHAR
STARTCHAR ssharp
ENCODING 223
SWIDTH 603 0
DWIDTH 11 0
BBX 10 19 1 -4
BITMAP
0780
0cc0
18c0
1880
1900
1a00
3600
3600
3300
3180
30c0
6040
6c40
68c0
6f00
6000
c000
c000
c000
ENDCHAR
STARTCHAR racute
ENCODING 224
SWIDTH 470 0
DWIDTH 9 0
BBX 9 14 2 0
BITMAP
0380
0600
0c00
0000
f180
3700
3c00
7800
7000
6000
6000
4000
c000
c000
ENDCHAR
STARTCHAR aacute
ENCODING 225
SWIDTH 608 0
DWIDTH 12 0
BBX 10 14 2 0
BITMAP
01c0
0300
0600
0000
0fc0
10c0
20c0
6080
6180
c180
c380
c580
c900
73c0
ENDCHAR
STARTCHAR acircumflex
ENCODING 226
SWIDTH 608 0
DWIDTH 12 0
BBX 10 14 2 0
BITMAP
0380
0680
0840
0000
0fc0
10c0
20c0
6080
6180
c180
c380
c580
c900
73c0
ENDCHAR
STARTCHAR abreve
ENCODING 227
SWIDTH 608 0
DWIDTH 12 0
BBX 10 14 2 0
BITMAP
0840
0d80
0700
0000
0fc0
10c0
20c0
6080
6180
c180
c380
c580
c900
73c0
ENDCHAR
STARTCHAR adiaeresis
ENCODING 228
SWIDTH 608 0
DWIDTH 12 0
BBX 10 12 2 0
BITMAP
0cc0
0000
0fc0
10c0
20c0
6080
6180
c180
c380
c580
c900
73c0
ENDCHAR
STARTCHAR lacute
ENCODING 229
SWIDTH 289 0
DWIDTH 5 0
BBX 8 18 2 0
BITMAP
07
0c
18
00
78
18
10
30
30
30
30
60
60
60
60
40
c0
f0
ENDCHAR
STARTCHAR cacute
ENCODING 230
SWIDTH 487 0
DWIDTH 9 0
BBX 11 14 2 0
BITMAP
00e0
0180
0300
0000
0f80
1100
2100
4000
c000
c000
c000
c000
c200
7c00
ENDCHAR
STARTCHAR ccedilla
ENCODING 231
SWIDTH 487 0
DWIDTH 9 0
BBX 9 14 2 -4
BITMAP
0f80
1100
2100
4000
c000
c000
c000
c000
c200
7c00
2000
3000
1000
7000
ENDCHAR
STARTCHAR ccaron
ENCODING 232
SWIDTH 487 0
DWIDTH 9 0
BBX 10 14 2 0
BITMAP
0840
0580
0700
0000
0f80
1100
2100
4000
c000
c000
c000
c000
c200
7c00
ENDCHAR
STARTCHAR eacute
ENCODING 233
SWIDTH 518 0
DWIDTH 10 0
BBX 10 14 2 0
BITMAP
01c0
0300
0600
0000
0f00
3300
6300
4300
c600
f800
c000
c100
e300
7c00
ENDCHAR
STARTCHAR eogonek
ENCODING 234
SWIDTH 518 0
DWIDTH 10 0
BBX 8 13 2 -3
BITMAP
0f
33
63
43
c6
f8
c0
c1
e3
7c
18
20
38
ENDCHAR
STARTCHAR ediaeresis
ENCODING 235
SWIDTH 518 0
DWIDTH 10 0
BBX 9 12 2 0
BITMAP
1980
0000
0f00
3300
6300
4300
c600
f800
c000
c100
e300
7c00
ENDCHAR
STARTCHAR ecaron
ENCODING 236
SWIDTH 518 0
DWIDTH 10 0
BBX 9 14 2 0
BITMAP
1080
0b00
0e00
0000
0f00
3300
6300
4300
c600
f800
c000
c100
e300
7c00
ENDCHAR
STARTCHAR iacute
ENCODING 237
SWIDTH 289 0
DWIDTH 5 0
BBX 7 14 2 0
BITMAP
0e
18
30
00
f0
30
20
60
60
60
60
40
c0
f0
ENDCHAR
STARTCHAR icircumflex
ENCODING 238
SWIDTH 289 0
DWIDTH 5 0
BBX 7 14 2 0
BITMAP
1c
34
42
00
f0
30
20
60
60
60
60
40
c0
f0
ENDCHAR
STARTCHAR dcaron
ENCODING 239
SWIDTH 842 0
DWIDTH 16 0
BBX 15 15 2 0
BITMAP
0006
01e6
0066
0044
00cc
0fc0
10c0
20c0
6080
6180
c180
c380
c580
c900
73c0
ENDCHAR
STARTCHAR dstroke
ENCODING 240
SWIDTH 789 0
DWIDTH 15 0
BBX 14 14 2 0
BITMAP
0020
03fc
0040
00c0
0fc0
10c0
20c0
6080
6180
c180
c380
c580
c900
73c0
ENDCHAR
STARTCHAR nacute
ENCODING 241
SWIDTH 631 0
DWIDTH 12 0
BBX 10 14 2 0
BITMAP
01c0
0300
0600
0000
f380
24c0
68c0
7080
6180
6180
4180
c180
c180
c3c0
ENDCHAR
STARTCHAR ncaron
ENCODING 242
SWIDTH 631 0
DWIDTH 12 0
BBX 10 14 2 0
BITMAP
1080
0b00
0e00
0000
f380
24c0
68c0
7080
6180
6180
4180
c180
c180
c3c0
ENDCHAR
STARTCHAR oacute
ENCODING 243
SWIDTH 560 0
DWIDTH 11 0
BBX 10 14 2 0
BITMAP
01c0
0300
0600
0000
0f00
3180
6180
6180
c180
c180
c180
c300
e600
7800
ENDCHAR
STARTCHAR ocircumflex
ENCODING 244
SWIDTH 560 0
DWIDTH 11 0
BBX 9 14 2 0
BITMAP
0700
0d00
1080
0000
0f00
3180
6180
6180
c180
c180
c180
c300
e600
7800
ENDCHAR
STARTCHAR odoubleacute
ENCODING 245
SWIDTH 560 0
DWIDTH 11 0
BBX 10 14 2 0
BITMAP
03c0
0500
0a00
0000
0f00
3180
6180
6180
c180
c180
c180
c300
e600
7800
ENDCHAR
STARTCHAR odiaeresis
ENCODING 246
SWIDTH 560 0
DWIDTH 11 0
BBX 10 12 2 0
BITMAP
0cc0
0000
0f00
3180
6180
6180
c180
c180
c180
c300
e600
7800
ENDCHAR
STARTCHAR division
ENCODING 247
SWIDTH 608 0
DWIDTH 12 0
BBX 11 10 1 0
BITMAP
0600
0000
0000
0000
0000
ffe0
0000
0000
0000
0c00
ENDCHAR
STARTCHAR rcaron
ENCODING 248
SWIDTH 470 0
DWIDTH 9 0
BBX 9 14 2 0
BITMAP
2100
1600
1c00
0000
f180
3700
3c00
7800
7000
6000
6000
4000
c000
c000
ENDCHAR
STARTCHAR uring
ENCODING 249
SWIDTH 630 0
DWIDTH 12 0
BBX 10 14 2 0
BITMAP
0e00
0a00
0e00
0000
f3c0
60c0
60c0
6080
6180
6180
4380
c580
c900
73c0
ENDCHAR
STARTCHAR uacute
ENCODING 250
SWIDTH 630 0
DWIDTH 12 0
BBX 10 14 2 0
BITMAP
01c0
0300
0600
0000
f3c0
60c0
60c0
6080
6180
6180
4380
c580
c900
73c0
ENDCHAR
STARTCHAR udoubleacute
ENCODING 251
SWIDTH 630 0
DWIDTH 12 0
BBX 10 14 2 0
BITMAP
03c0
0500
0a00
0000
f3c0
60c0
60c0
6080
6180
6180
4380
c580
c900
73c0
ENDCHAR
STARTCHAR udiaeresis
ENCODING 252
SWIDTH 630 0
DWIDTH 12 0
BBX 10 12 2 0
BITMAP
0cc0
0000
f3c0
60c0
60c0
6080
6180
6180
4380
c580
c900
73c0
ENDCHAR
STARTCHAR yacute
ENCODING 253
SWIDTH 558 0
DWIDTH 11 0
BBX 12 18 0 -4
BITMAP
0070
00c0
0180
0000
7870
1830
1820
0820
0c40
0c80
0d00
0d00
0e00
0400
0800
1000
3000
e000
ENDCHAR
STARTCHAR tcedilla
ENCODING 254
SWIDTH 355 0
DWIDTH 7 0
BBX 6 17 2 -4
BITMAP
30
30
30
fc
60
60
60
60
40
c0
c0
c0
70
30
30
10
70
ENDCHAR
STARTCHAR abovedot
ENCODING 255
SWIDTH 560 0
DWIDTH 11 0
BBX 2 1 7 13
BITMAP
c0
ENDCHAR
ENDFONT
